HIERARCHY
ROOT Hips
{
	OFFSET 0.000000 0.000000 0.000000
	CHANNELS 6 Xposition Yposition Zposition Xrotation Yrotation Zrotation
	JOINT LeftUpLeg_virtual
	{
		OFFSET 0.000000 0.000000 0.000000
		CHANNELS 3 Xrotation Yrotation Zrotation
		JOINT LeftUpLeg
		{
			OFFSET 13.026900 -6.336304 -1.092800
			CHANNELS 3 Xrotation Yrotation Zrotation
			JOINT LeftLeg
			{
				OFFSET 0.524474 -46.096886 9.782700
				CHANNELS 3 Xrotation Yrotation Zrotation
				JOINT LeftFoot
				{
					OFFSET -0.524474 -53.427422 -12.948200
					CHANNELS 3 Xrotation Yrotation Zrotation
					JOINT LeftToeBase
					{
						OFFSET 0.192200 -14.009700 16.364100
						CHANNELS 3 Xrotation Yrotation Zrotation
						JOINT LeftToe_End
						{
							OFFSET -1.784700 -0.561700 9.474800
							CHANNELS 3 Xrotation Yrotation Zrotation
							End Site
							{
								OFFSET 0 0 0
							}
						}
					}
				}
			}
		}
	}
	JOINT RightUpLeg_virtual
	{
		OFFSET 0.000000 0.000000 0.000000
		CHANNELS 3 Xrotation Yrotation Zrotation
		JOINT RightUpLeg
		{
			OFFSET -12.883000 -6.336304 -1.092800
			CHANNELS 3 Xrotation Yrotation Zrotation
			JOINT RightLeg
			{
				OFFSET -0.524587 -46.096825 9.782800
				CHANNELS 3 Xrotation Yrotation Zrotation
				JOINT RightFoot
				{
					OFFSET 0.524587 -53.427383 -12.948300
					CHANNELS 3 Xrotation Yrotation Zrotation
					JOINT RightToeBase
					{
						OFFSET -0.192200 -14.009700 16.364100
						CHANNELS 3 Xrotation Yrotation Zrotation
						JOINT RightToe_End
						{
							OFFSET 1.784700 -0.561700 9.474800
							CHANNELS 3 Xrotation Yrotation Zrotation
							End Site
							{
								OFFSET 0 0 0
							}
						}
					}
				}
			}
		}
	}
	JOINT Spine_virtual
	{
		OFFSET 0.000000 0.000000 0.000000
		CHANNELS 3 Xrotation Yrotation Zrotation
		JOINT Spine
		{
			OFFSET 0.072000 7.257294 -0.789700
			CHANNELS 3 Xrotation Yrotation Zrotation
			JOINT Spine1
			{
				OFFSET 0.000000 12.508769 -0.658067
				CHANNELS 3 Xrotation Yrotation Zrotation
				JOINT Spine1_split
				{
					OFFSET 0.000000 12.508769 -0.658067
					CHANNELS 3 Xrotation Yrotation Zrotation
					JOINT Spine2
					{
						OFFSET 0.000000 12.508769 -0.658067
						CHANNELS 3 Xrotation Yrotation Zrotation
						JOINT Neck_virtual
						{
							OFFSET 0.000000 0.000000 0.000000
							CHANNELS 3 Xrotation Yrotation Zrotation
							JOINT Neck
							{
								OFFSET 0.000000 14.033295 7.520400
								CHANNELS 3 Xrotation Yrotation Zrotation
								JOINT Head
								{
									OFFSET 0.000000 8.198502 5.703100
									CHANNELS 3 Xrotation Yrotation Zrotation
									JOINT HeadTop_End
									{
										OFFSET 0.000000 17.760803 13.332701
										CHANNELS 3 Xrotation Yrotation Zrotation
										End Site
										{
											OFFSET 0 0 0
										}
									}
								}
							}
						}
						JOINT LeftShoulder_virtual
						{
							OFFSET 0.000000 0.000000 0.000000
							CHANNELS 3 Xrotation Yrotation Zrotation
							JOINT LeftShoulder
							{
								OFFSET 6.292450 5.785301 -0.669000
								CHANNELS 3 Xrotation Yrotation Zrotation
								JOINT LeftShoulder_split
								{
									OFFSET 6.292450 5.785301 -0.669000
									CHANNELS 3 Xrotation Yrotation Zrotation
									JOINT LeftArm
									{
										OFFSET 13.907140 -6.093903 1.965100
										CHANNELS 3 Xrotation Yrotation Zrotation
										JOINT LeftForeArm
										{
											OFFSET 34.140198 0.000000 0.000000
											CHANNELS 3 Xrotation Yrotation Zrotation
											JOINT LeftHand
											{
												OFFSET 40.960209 0.000000 0.000000
												CHANNELS 3 Xrotation Yrotation Zrotation
												End Site
												{
													OFFSET 0 0 0
												}
											}
										}
									}
								}
							}
						}
						JOINT RightShoulder_virtual
						{
							OFFSET 0.000000 0.000000 0.000000
							CHANNELS 3 Xrotation Yrotation Zrotation
							JOINT RightShoulder
							{
								OFFSET -6.292450 5.785301 -0.669000
								CHANNELS 3 Xrotation Yrotation Zrotation
								JOINT RightShoulder_split
								{
									OFFSET -6.292450 5.785301 -0.669000
									CHANNELS 3 Xrotation Yrotation Zrotation
									JOINT RightArm
									{
										OFFSET -13.907140 -6.093903 1.965100
										CHANNELS 3 Xrotation Yrotation Zrotation
										JOINT RightForeArm
										{
											OFFSET -34.140198 0.000000 0.000000
											CHANNELS 3 Xrotation Yrotation Zrotation
											JOINT RightHand
											{
												OFFSET -40.960209 0.000000 0.000000
												CHANNELS 3 Xrotation Yrotation Zrotation
												End Site
												{
													OFFSET 0 0 0
												}
											}
										}
									}
								}
							}
						}
					}
				}
			}
		}
	}
}
MOTION
Frames: 4
Frame Time: 0.03333333
-1.111082 101.148094 0.434391 0.000000 0.000000 0.000000 3.032230 -58.328497 6.707846 -36.059092 9.362595 25.457770 41.736735 -7.562043 -9.727455 -7.261665 -2.456344 -9.620543 -0.327614 1.238433 0.837254 0.000000 0.000000 0.000000 3.032230 -58.328497 6.707846 -33.213820 -7.744969 -26.045036 46.183875 2.600946 -7.371291 -16.831823 2.997433 21.175178 -0.322766 -0.997424 -0.837127 0.000000 0.000000 0.000000 3.032230 -58.328497 6.707846 11.191913 0.157694 -2.923546 8.434585 0.027705 -5.592322 0.000000 0.000000 0.000000 0.000000 0.000000 0.000000 8.457057 0.027855 -5.591867 -21.555643 25.063377 12.062566 -0.294042 25.465758 -3.208975 0.000000 0.000000 0.000000 8.457057 0.027855 -5.591867 -6.221670 -11.503850 -4.023830 0.000000 0.000000 0.000000 -23.062175 9.568549 -36.639607 0.046114 -43.169121 -0.011155 0.000000 0.000000 0.000000 8.457057 0.027855 -5.591867 -5.488241 10.658268 2.466538 0.000000 0.000000 0.000000 -41.473797 -26.755596 30.079074 -155.044556 68.137011 156.691547 0.000000 0.000000 0.000000 
-1.152400 101.119942 0.569492 0.000000 0.000000 0.000000 3.163720 -58.414797 6.753948 -36.180646 9.173611 25.452475 42.049571 -7.411814 -9.642125 -7.224960 -2.439136 -9.743933 -0.389460 1.237574 0.710788 0.000000 0.000000 0.000000 3.163720 -58.414797 6.753948 -33.169229 -7.490166 -25.843192 46.214286 2.394208 -7.508072 -16.679498 2.957083 21.434672 -0.427069 -0.995819 -0.791654 0.000000 0.000000 0.000000 3.163720 -58.414797 6.753948 11.105579 0.191735 -2.866292 8.263421 0.094347 -5.514621 0.000000 0.000000 0.000000 0.000000 0.000000 0.000000 8.285900 0.094473 -5.514149 -21.429170 24.538189 11.838499 -0.484138 24.969449 -3.032918 0.000000 0.000000 0.000000 8.285900 0.094473 -5.514149 -5.880231 -11.203445 -4.136704 0.000000 0.000000 0.000000 -23.070897 10.188988 -36.902546 -0.778820 -43.644028 -0.618978 0.000000 0.000000 0.000000 8.285900 0.094473 -5.514149 -5.152138 10.691567 2.515987 0.000000 0.000000 0.000000 -41.675335 -27.395464 29.700371 -149.245043 66.526186 150.903631 0.000000 0.000000 0.000000 
-1.190796 100.990616 0.730343 0.000000 0.000000 0.000000 3.408149 -58.489983 6.920746 -36.446801 8.877462 25.387605 42.576903 -7.195645 -9.521980 -7.246505 -2.410620 -9.840551 -0.467793 1.236412 0.551787 0.000000 0.000000 0.000000 3.408149 -58.489983 6.920746 -33.252452 -7.086743 -25.648115 46.430844 2.113599 -7.677805 -16.537712 2.901457 21.708018 -0.594490 -0.993440 -0.710869 0.000000 0.000000 0.000000 3.408149 -58.489983 6.920746 11.074958 0.234915 -2.812201 8.204041 0.173845 -5.448624 0.000000 0.000000 0.000000 0.000000 0.000000 0.000000 8.226524 0.173980 -5.448158 -21.737111 23.674411 11.523824 -0.392237 24.201015 -2.926325 0.000000 0.000000 0.000000 8.226524 0.173980 -5.448158 -5.861944 -10.946071 -4.243529 0.000000 0.000000 0.000000 -22.790229 11.203509 -37.079400 -2.568645 -44.597474 -2.588016 0.000000 0.000000 0.000000 8.226524 0.173980 -5.448158 -5.219777 10.572304 2.900653 0.000000 0.000000 0.000000 -41.870682 -28.266545 29.056062 -138.768352 62.896931 140.499778 0.000000 0.000000 0.000000 
-1.207952 100.366890 1.018784 0.000000 0.000000 0.000000 4.314634 -58.428252 7.761637 -37.554450 8.025370 25.028426 44.216999 -6.749077 -9.243438 -7.637646 -2.302564 -9.840995 -0.592124 1.234693 0.297475 0.000000 0.000000 0.000000 4.314634 -58.428252 7.761637 -34.047281 -5.963302 -25.546021 47.620936 1.522859 -7.955382 -16.498214 2.730082 22.159745 -0.944882 -0.988264 -0.425060 0.000000 0.000000 0.000000 4.314634 -58.428252 7.761637 10.962273 0.327342 -2.722160 7.982662 0.345530 -5.338385 0.000000 0.000000 0.000000 0.000000 0.000000 0.000000 8.005114 0.345664 -5.337920 -22.240452 21.206257 10.427364 -2.681743 22.078435 -1.496622 0.000000 0.000000 0.000000 8.005114 0.345664 -5.337920 -5.789407 -10.906024 -4.641804 0.000000 0.000000 0.000000 -21.919120 12.280469 -36.434647 -4.904221 -45.766045 -6.428677 0.000000 0.000000 0.000000 8.005114 0.345664 -5.337920 -5.486565 9.961641 4.839515 0.000000 0.000000 0.000000 -42.348119 -30.087349 26.396243 -123.186573 54.213780 124.248531 0.000000 0.000000 0.000000 
